<svg width="22" height="16" viewBox="0 0 22 16" fill="none" xmlns="http://www.w3.org/2000/svg">
<path d="M14 16C11.7667 16 9.875 15.225 8.325 13.675C6.775 12.125 6 10.2334 6 8.00003C6 5.78336 6.775 3.89586 8.325 2.33753C9.875 0.779197 11.7667 3.05176e-05 14 3.05176e-05C16.2167 3.05176e-05 18.1042 0.779197 19.6625 2.33753C21.2208 3.89586 22 5.78336 22 8.00003C22 10.2334 21.2208 12.125 19.6625 13.675C18.1042 15.225 16.2167 16 14 16ZM14 14C15.6667 14 17.0833 13.4167 18.25 12.25C19.4167 11.0834 20 9.6667 20 8.00003C20 6.33336 19.4167 4.9167 18.25 3.75003C17.0833 2.58336 15.6667 2.00003 14 2.00003C12.3333 2.00003 10.9167 2.58336 9.75 3.75003C8.58333 4.9167 8 6.33336 8 8.00003C8 9.6667 8.58333 11.0834 9.75 12.25C10.9167 13.4167 12.3333 14 14 14ZM15 7.60003V5.00003C15 4.7167 14.9042 4.4792 14.7125 4.28753C14.5208 4.09586 14.2833 4.00003 14 4.00003C13.7167 4.00003 13.4792 4.09586 13.2875 4.28753C13.0958 4.4792 13 4.7167 13 5.00003V8.02503C13 8.15836 13.0292 8.28753 13.0875 8.41253C13.1458 8.53753 13.2167 8.6417 13.3 8.72503L15.575 11C15.775 11.2 16.0125 11.3 16.2875 11.3C16.5625 11.3 16.8 11.2 17 11C17.2 10.8 17.3 10.5625 17.3 10.2875C17.3 10.0125 17.2 9.77503 17 9.57503L15 7.60003ZM2 5.00003C1.71667 5.00003 1.47917 4.9042 1.2875 4.71253C1.09583 4.52086 1 4.28336 1 4.00003C1 3.7167 1.09583 3.4792 1.2875 3.28753C1.47917 3.09586 1.71667 3.00003 2 3.00003H4C4.28333 3.00003 4.52083 3.09586 4.7125 3.28753C4.90417 3.4792 5 3.7167 5 4.00003C5 4.28336 4.90417 4.52086 4.7125 4.71253C4.52083 4.9042 4.28333 5.00003 4 5.00003H2ZM1 9.00003C0.716667 9.00003 0.479167 8.9042 0.2875 8.71253C0.0958333 8.52086 0 8.28336 0 8.00003C0 7.7167 0.0958333 7.4792 0.2875 7.28753C0.479167 7.09586 0.716667 7.00003 1 7.00003H4C4.28333 7.00003 4.52083 7.09586 4.7125 7.28753C4.90417 7.4792 5 7.7167 5 8.00003C5 8.28336 4.90417 8.52086 4.7125 8.71253C4.52083 8.9042 4.28333 9.00003 4 9.00003H1ZM2 13C1.71667 13 1.47917 12.9042 1.2875 12.7125C1.09583 12.5209 1 12.2834 1 12C1 11.7167 1.09583 11.4792 1.2875 11.2875C1.47917 11.0959 1.71667 11 2 11H4C4.28333 11 4.52083 11.0959 4.7125 11.2875C4.90417 11.4792 5 11.7167 5 12C5 12.2834 4.90417 12.5209 4.7125 12.7125C4.52083 12.9042 4.28333 13 4 13H2Z" fill="#090F1F"/>
</svg>
