<svg width="12" height="20" viewBox="0 0 12 20" fill="none" xmlns="http://www.w3.org/2000/svg">
<path d="M10 2.00006V9.00006L11.7 10.7001C11.8 10.8001 11.875 10.9126 11.925 11.0376C11.975 11.1626 12 11.2917 12 11.4251V12.0001C12 12.2834 11.9042 12.5209 11.7125 12.7126C11.5208 12.9042 11.2833 13.0001 11 13.0001H7V18.8501C7 19.1334 6.90417 19.3709 6.7125 19.5626C6.52083 19.7542 6.28333 19.8501 6 19.8501C5.71667 19.8501 5.47917 19.7542 5.2875 19.5626C5.09583 19.3709 5 19.1334 5 18.8501V13.0001H1C0.716667 13.0001 0.479167 12.9042 0.2875 12.7126C0.0958333 12.5209 0 12.2834 0 12.0001V11.4251C0 11.2917 0.025 11.1626 0.075 11.0376C0.125 10.9126 0.2 10.8001 0.3 10.7001L2 9.00006V2.00006C1.71667 2.00006 1.47917 1.90423 1.2875 1.71256C1.09583 1.52089 1 1.28339 1 1.00006C1 0.716728 1.09583 0.479228 1.2875 0.287561C1.47917 0.0958944 1.71667 6.10352e-05 2 6.10352e-05H10C10.2833 6.10352e-05 10.5208 0.0958944 10.7125 0.287561C10.9042 0.479228 11 0.716728 11 1.00006C11 1.28339 10.9042 1.52089 10.7125 1.71256C10.5208 1.90423 10.2833 2.00006 10 2.00006ZM2.85 11.0001H9.15L8 9.85006V2.00006H4V9.85006L2.85 11.0001Z" fill="#090F1F"/>
</svg>
